<?xml version="1.0" standalone="no"?>
<!DOCTYPE svg PUBLIC "-//W3C//DTD SVG 20010904//EN"
 "http://www.w3.org/TR/2001/REC-SVG-20010904/DTD/svg10.dtd">
<svg version="1.0" xmlns="http://www.w3.org/2000/svg"
 width="3000.000000pt" height="3000.000000pt" viewBox="0 0 3000.000000 3000.000000"
 preserveAspectRatio="xMidYMid meet">

<g transform="translate(0.000000,3000.000000) scale(0.100000,-0.100000)"
fill="#000000" stroke="none">
<path d="M10270 27300 l0 -1630 820 0 820 0 0 -820 0 -820 -820 0 -820 0 0
-815 0 -815 -815 0 -815 0 0 -820 0 -820 -815 0 -815 0 0 820 0 820 -1635 0
-1635 0 0 -820 0 -820 -815 0 -815 0 0 -2450 0 -2450 815 0 815 0 0 -815 0
-815 -815 0 -815 0 0 -4900 0 -4900 815 0 815 0 0 -820 0 -820 11435 0 11435
0 0 820 0 820 815 0 815 0 0 4900 0 4900 -815 0 -815 0 0 815 0 815 815 0 815
0 0 2450 0 2450 -815 0 -815 0 0 820 0 820 -1635 0 -1635 0 0 -820 0 -820
-815 0 -815 0 0 820 0 820 -815 0 -815 0 0 815 0 815 -820 0 -820 0 0 820 0
820 820 0 820 0 0 1630 0 1630 -4905 0 -4905 0 0 -1630z m8170 -815 l0 -815
-3265 0 -3265 0 0 815 0 815 3265 0 3265 0 0 -815z m-13070 -6540 l0 -815 820
0 820 0 0 -815 0 -815 815 0 815 0 0 815 0 815 1635 0 1635 0 0 815 0 815
3265 0 3265 0 0 -815 0 -815 1635 0 1635 0 0 -815 0 -815 815 0 815 0 0 815 0
815 820 0 820 0 0 815 0 815 815 0 815 0 0 -2450 0 -2450 -815 0 -815 0 0 820
0 820 -820 0 -820 0 0 -1635 0 -1635 1635 0 1635 0 0 -4085 0 -4085 -815 0
-815 0 0 -815 0 -815 -2450 0 -2450 0 0 1630 0 1630 815 0 815 0 0 820 0 820
-815 0 -815 0 0 1635 0 1635 -820 0 -820 0 0 -2455 0 -2455 -3265 0 -3265 0 0
2455 0 2455 -820 0 -820 0 0 -1635 0 -1635 -815 0 -815 0 0 -820 0 -820 815 0
815 0 0 -1630 0 -1630 -2450 0 -2450 0 0 815 0 815 -815 0 -815 0 0 4085 0
4085 1635 0 1635 0 0 1635 0 1635 -820 0 -820 0 0 -820 0 -820 -815 0 -815 0
0 2450 0 2450 815 0 815 0 0 -815z"/>
<path d="M5370 11780 l0 -820 820 0 820 0 0 820 0 820 -820 0 -820 0 0 -820z"/>
<path d="M23340 11780 l0 -820 820 0 820 0 0 820 0 820 -820 0 -820 0 0 -820z"/>
<path d="M7010 6875 l0 -815 815 0 815 0 0 815 0 815 -815 0 -815 0 0 -815z"/>
<path d="M21710 6875 l0 -815 815 0 815 0 0 815 0 815 -815 0 -815 0 0 -815z"/>
</g>
</svg>
